# xmcd CD database file
#
# Track frame offsets:
#	150
#	15675
#	33042
#	48542
#
# Disc length: 875 seconds
#
# Revision: 0
# Processed by: cddbd v1.5.1PL2 Copyright (c) Steve Scherf et al.
# Submitted via: CDex 1.51
#
DISCID=26036904
DTITLE=ちくタン（門脇 舞）／木村真紀 - びんちょうタン　びんちょう音頭
DYEAR=2006
DGENRE=アニメ
TTITLE0=びんちょう音頭
TTITLE1=ひとつ星
TTITLE2=びんちょう音頭 Original Karaoke
TTITLE3=ひとつ星 Original Karaoke
EXTD=YEAR: 2006
EXTT0=
EXTT1=
EXTT2=
EXTT3=
PLAYORDER=
